<?xml version="1.0" encoding="UTF-8"?>
<svg width="512" height="512" viewBox="0 0 512 512" xmlns="http://www.w3.org/2000/svg">
  <!-- Background circle -->
  <circle cx="256" cy="256" r="250" fill="#FFE5B4" stroke="#FFA500" stroke-width="12"/>
  
  <!-- Cat face -->
  <ellipse cx="256" cy="280" rx="120" ry="100" fill="#FFA500"/>
  
  <!-- Ears -->
  <path d="M 150 200 L 130 120 L 200 160 Z" fill="#FFA500"/>
  <path d="M 362 200 L 382 120 L 312 160 Z" fill="#FFA500"/>
  
  <!-- Inner ears -->
  <path d="M 160 180 L 150 140 L 185 160 Z" fill="#FFB366"/>
  <path d="M 352 180 L 362 140 L 327 160 Z" fill="#FFB366"/>
  
  <!-- Eyes -->
  <circle cx="210" cy="270" r="25" fill="#000000"/>
  <circle cx="302" cy="270" r="25" fill="#000000"/>
  
  <!-- Eye highlights -->
  <circle cx="215" cy="265" r="8" fill="#FFFFFF"/>
  <circle cx="307" cy="265" r="8" fill="#FFFFFF"/>
  
  <!-- Nose -->
  <path d="M 256 300 L 240 315 L 256 320 L 272 315 Z" fill="#FF69B4"/>
  
  <!-- Mouth -->
  <path d="M 256 320 Q 230 335 210 320" fill="none" stroke="#000000" stroke-width="4" stroke-linecap="round"/>
  <path d="M 256 320 Q 282 335 302 320" fill="none" stroke="#000000" stroke-width="4" stroke-linecap="round"/>
  
  <!-- Whiskers -->
  <line x1="100" y1="270" x2="170" y2="280" stroke="#000000" stroke-width="3" stroke-linecap="round"/>
  <line x1="100" y1="290" x2="170" y2="290" stroke="#000000" stroke-width="3" stroke-linecap="round"/>
  <line x1="342" y1="280" x2="412" y2="270" stroke="#000000" stroke-width="3" stroke-linecap="round"/>
  <line x1="342" y1="290" x2="412" y2="290" stroke="#000000" stroke-width="3" stroke-linecap="round"/>
  
  <!-- Crown hat (default accessory) -->
  <path d="M 200 160 L 200 120 L 220 140 L 256 120 L 292 140 L 312 120 L 312 160 Z" fill="#FFD700" stroke="#FFA500" stroke-width="3"/>
  
  <!-- Text -->
  <text x="256" y="440" font-family="Arial, sans-serif" font-size="48" font-weight="bold" text-anchor="middle" fill="#FFA500">Meowchi</text>
</svg>